# xmcd CD database file
#
# Track frame offsets:
#	150
#	18601
#	37051
#	53101
#	69148
#	86099
#	103050
#	122552
#	142054
#	163579
#	185105
#	201607
#	218107
#	239257
#	260406
#	277055
#	293705
#	306605
#	319505
#	339230
#	358957
#
# Disc length: 4794 seconds
#
# Revision: 0
# Processed by: cddbd v1.5.2PL0 Copyright (c) Steve Scherf et al.
# Submitted via: CDex 1.51
#
DISCID=5512b815
DTITLE=Varios - MILES DAVIS
DYEAR=1900
DGENRE=Jazz
TTITLE0=Autumn Leaves (SPLIT)
TTITLE1=Autumn Leaves (STEREO)
TTITLE2=Bye Bye Blackbird (SPLIT)
TTITLE3=Bye Bye Blackbird (STEREO)
TTITLE4=Darn That Dream (SPLIT)
TTITLE5=Darn That Dream (STEREO)
TTITLE6=How Deep IS The Ocean (SPLIT)
TTITLE7=How Deep IS The Ocean (STEREO)
TTITLE8=I Loves You, Porgy (SPLIT)
TTITLE9=I Loves You, Porgy (STEREO)
TTITLE10=If I Were a Bell (SPLIT)
TTITLE11=If I Were a Bell (STEREO)
TTITLE12=My Funny Valentine (SPLIT)
TTITLE13=My Funny Valentine (STEREO)
TTITLE14=On Green Dolphin Street (SPLIT)
TTITLE15=On Green Dolphin Street (STEREO)
TTITLE16=Some Day My Prince Will Come (SPLIT)
TTITLE17=Some Day My Prince Will Come (STEREO)
TTITLE18=Yesterdays (SPLIT)
TTITLE19=Yesterdays (STEREO)
TTITLE20=Tuning notes
EXTD=
EXTT0=
EXTT1=
EXTT2=
EXTT3=
EXTT4=
EXTT5=
EXTT6=
EXTT7=
EXTT8=
EXTT9=
EXTT10=
EXTT11=
EXTT12=
EXTT13=
EXTT14=
EXTT15=
EXTT16=
EXTT17=
EXTT18=
EXTT19=
EXTT20=
PLAYORDER=
